<svg xmlns="http://www.w3.org/2000/svg" viewBox="0 0 1920 1080" preserveAspectRatio="xMidYMid slice">
  <defs>
    <radialGradient id="starGradient" cx="30%" cy="30%">
      <stop offset="0%" style="stop-color:#1a0033;stop-opacity:1" />
      <stop offset="100%" style="stop-color:#0a0015;stop-opacity:1" />
    </radialGradient>
  </defs>
  
  <!-- Background gradient -->
  <rect width="1920" height="1080" fill="url(#starGradient)"/>
  
  <!-- Stars -->
  <circle cx="150" cy="120" r="1.5" fill="white" opacity="0.8"/>
  <circle cx="320" cy="200" r="1" fill="white" opacity="0.6"/>
  <circle cx="480" cy="80" r="1.2" fill="white" opacity="0.7"/>
  <circle cx="650" cy="150" r="0.8" fill="white" opacity="0.5"/>
  <circle cx="800" cy="60" r="1" fill="white" opacity="0.8"/>
  <circle cx="950" cy="180" r="1.3" fill="white" opacity="0.6"/>
  <circle cx="1100" cy="100" r="0.9" fill="white" opacity="0.7"/>
  <circle cx="1250" cy="250" r="1.1" fill="white" opacity="0.8"/>
  <circle cx="1400" cy="140" r="1" fill="white" opacity="0.6"/>
  <circle cx="1550" cy="200" r="1.4" fill="white" opacity="0.7"/>
  <circle cx="1700" cy="90" r="0.8" fill="white" opacity="0.5"/>
  <circle cx="1850" cy="220" r="1.2" fill="white" opacity="0.8"/>
  
  <circle cx="200" cy="400" r="1" fill="white" opacity="0.7"/>
  <circle cx="400" cy="500" r="1.3" fill="white" opacity="0.6"/>
  <circle cx="600" cy="380" r="0.9" fill="white" opacity="0.8"/>
  <circle cx="750" cy="450" r="1.1" fill="white" opacity="0.5"/>
  <circle cx="900" cy="420" r="1" fill="white" opacity="0.7"/>
  <circle cx="1050" cy="480" r="1.2" fill="white" opacity="0.6"/>
  <circle cx="1200" cy="350" r="0.8" fill="white" opacity="0.8"/>
  <circle cx="1350" cy="500" r="1.1" fill="white" opacity="0.7"/>
  <circle cx="1500" cy="400" r="1" fill="white" opacity="0.6"/>
  <circle cx="1700" cy="450" r="1.3" fill="white" opacity="0.8"/>
  <circle cx="1850" cy="380" r="0.9" fill="white" opacity="0.5"/>
  
  <circle cx="100" cy="700" r="1.2" fill="white" opacity="0.6"/>
  <circle cx="300" cy="800" r="1" fill="white" opacity="0.8"/>
  <circle cx="500" cy="750" r="1.1" fill="white" opacity="0.7"/>
  <circle cx="700" cy="850" r="0.8" fill="white" opacity="0.5"/>
  <circle cx="850" cy="720" r="1.3" fill="white" opacity="0.8"/>
  <circle cx="1000" cy="800" r="0.9" fill="white" opacity="0.6"/>
  <circle cx="1150" cy="750" r="1.1" fill="white" opacity="0.7"/>
  <circle cx="1300" cy="820" r="1" fill="white" opacity="0.8"/>
  <circle cx="1450" cy="700" r="1.2" fill="white" opacity="0.6"/>
  <circle cx="1600" cy="850" r="0.8" fill="white" opacity="0.5"/>
  <circle cx="1800" cy="720" r="1.3" fill="white" opacity="0.8"/>
</svg>
